<svg width="15" height="16" viewBox="0 0 15 16" fill="none" xmlns="http://www.w3.org/2000/svg">
<path fill-rule="evenodd" clip-rule="evenodd" d="M7.9562 6.09603C8.75185 6.09603 9.51491 5.77996 10.0775 5.21735C10.6401 4.65474 10.9562 3.89168 10.9562 3.09603C10.9562 2.30038 10.6401 1.53732 10.0775 0.974712C9.51491 0.412103 8.75185 0.0960321 7.9562 0.0960321C7.16055 0.0960321 6.39749 0.412103 5.83488 0.974712C5.27227 1.53732 4.9562 2.30038 4.9562 3.09603C4.9562 3.89168 5.27227 4.65474 5.83488 5.21735C6.39749 5.77996 7.16055 6.09603 7.9562 6.09603ZM0.9562 15.096C0.9562 14.1768 1.13726 13.2665 1.48904 12.4172C1.84083 11.568 2.35644 10.7963 3.00645 10.1463C3.65646 9.49627 4.42814 8.98066 5.27742 8.62888C6.12669 8.27709 7.03695 8.09603 7.9562 8.09603C8.87545 8.09603 9.7857 8.27709 10.635 8.62888C11.4843 8.98066 12.2559 9.49627 12.9059 10.1463C13.556 10.7963 14.0716 11.568 14.4234 12.4172C14.7751 13.2665 14.9562 14.1768 14.9562 15.096H0.9562Z" fill="#00D4F3"/>
</svg>
