<svg width="20" height="21" viewBox="0 0 20 21" fill="none" xmlns="http://www.w3.org/2000/svg">
<path d="M1 10.5L3 8.5M3 8.5L10 1.5L17 8.5M3 8.5V18.5C3 18.7652 3.10536 19.0196 3.29289 19.2071C3.48043 19.3946 3.73478 19.5 4 19.5H7M17 8.5L19 10.5M17 8.5V18.5C17 18.7652 16.8946 19.0196 16.7071 19.2071C16.5196 19.3946 16.2652 19.5 16 19.5H13M7 19.5C7.26522 19.5 7.51957 19.3946 7.70711 19.2071C7.89464 19.0196 8 18.7652 8 18.5V14.5C8 14.2348 8.10536 13.9804 8.29289 13.7929C8.48043 13.6054 8.73478 13.5 9 13.5H11C11.2652 13.5 11.5196 13.6054 11.7071 13.7929C11.8946 13.9804 12 14.2348 12 14.5V18.5C12 18.7652 12.1054 19.0196 12.2929 19.2071C12.4804 19.3946 12.7348 19.5 13 19.5M7 19.5H13" stroke="#00D4F3" stroke-width="2" stroke-linecap="round" stroke-linejoin="round"/>
</svg>
